<svg version="1.1" id="Layer_1" xmlns="http://www.w3.org/2000/svg" xmlns:xlink="http://www.w3.org/1999/xlink" x="100px" y="100px"
	 width="400px" viewBox="0 0 1000 1000" enable-background="new 0 0 1000 1000" xml:space="preserve">
<path fill="none" opacity="1.000000" stroke="none" 
	d="
M488.000000,1001.000000 
	C325.333344,1001.000000 163.166672,1001.000000 1.000000,1001.000000 
	C1.000000,667.666687 1.000000,334.333344 1.000000,1.000000 
	C334.333344,1.000000 667.666687,1.000000 1001.000000,1.000000 
	C1001.000000,334.333344 1001.000000,667.666687 1001.000000,1001.000000 
	C830.166687,1001.000000 659.333313,1001.000000 488.000000,1001.000000 
M100.224365,643.664795 
	C89.187080,667.337830 78.294121,691.072388 68.317894,715.709656 
	C97.653755,715.709656 125.797707,715.766907 153.940201,715.591980 
	C156.007614,715.579224 158.421844,714.311523 160.070374,712.914185 
	C174.272339,700.876770 188.290176,688.622375 202.456055,676.541931 
	C211.424088,668.894226 220.652786,661.550720 229.577026,653.853333 
	C237.959518,646.623169 245.951248,638.937805 254.379395,631.763367 
	C263.364624,624.114624 272.629974,616.793030 281.825958,609.394287 
	C302.947113,592.401123 323.919678,575.215820 345.301270,558.556091 
	C360.766571,546.505981 376.671112,535.006348 392.602386,523.571289 
	C408.366608,512.256042 424.064484,500.787262 440.418427,490.370178 
	C460.856201,477.351807 481.665405,464.858368 502.809052,453.022125 
	C525.661560,440.229248 548.891907,428.071106 572.305359,416.329956 
	C605.596924,399.635162 640.041992,385.540894 676.242920,376.616943 
	C696.641846,371.588379 717.490295,367.641998 738.371216,365.515808 
	C759.882507,363.325409 781.425110,365.875854 802.449768,371.913940 
	C827.170959,379.013702 842.610413,395.003387 849.345459,419.534058 
	C855.812927,443.089783 850.870911,464.850433 837.212646,484.526978 
	C820.667175,508.362823 795.917969,515.719910 768.515686,516.493591 
	C753.566528,516.915649 738.593994,516.453796 723.632324,516.497498 
	C702.636414,516.558838 681.640320,516.677856 660.645386,516.876831 
	C656.886475,516.912415 655.416321,515.622925 655.426453,511.668427 
	C655.461060,498.200195 655.004150,484.730865 655.020569,471.262329 
	C655.041199,454.294556 655.471741,437.327057 655.457458,420.359680 
	C655.452026,413.877106 654.706055,407.395142 654.262512,400.357300 
	C651.748474,401.469788 650.270630,402.201233 648.738037,402.790161 
	C631.720825,409.329681 614.421021,415.218445 597.727112,422.497650 
	C559.623291,439.112427 523.230652,459.126434 487.712494,480.643066 
	C451.303741,502.699249 415.745178,526.111877 381.911438,551.990723 
	C353.376587,573.816406 324.776215,595.598877 297.041260,618.416992 
	C263.653564,645.885803 231.138443,674.415833 198.298325,702.548035 
	C196.627670,703.979126 195.454193,705.990662 194.049225,707.731934 
	C194.395065,708.025085 194.740891,708.318237 195.086731,708.611389 
	C261.230347,664.238037 322.678864,613.032593 391.737091,573.041748 
	C395.530731,581.427002 399.423492,589.777344 403.104279,598.220154 
	C410.794250,615.859009 418.389618,633.539185 425.991852,651.216125 
	C434.569519,671.161194 443.120148,691.117920 451.661438,711.078613 
	C453.015564,714.243042 454.851593,715.917297 458.775757,715.878479 
	C481.605927,715.652771 504.439270,715.747864 527.271545,715.735718 
	C532.347046,715.733032 537.422485,715.735352 543.410889,715.735352 
	C540.641174,708.650513 538.528564,702.569336 535.925903,696.705811 
	C524.467407,670.891357 512.887268,645.130798 501.313324,619.367676 
	C489.815399,593.773804 478.265686,568.203247 466.751740,542.616516 
	C461.623260,531.219727 461.584930,531.104309 473.270966,525.429138 
	C496.565460,514.116577 519.833313,502.741394 543.302551,491.800385 
	C552.251587,487.628510 561.723145,484.577423 571.727417,480.718109 
	C571.727417,488.744232 571.685913,495.560150 571.734009,502.375427 
	C572.085266,552.135254 572.505737,601.894592 572.792175,651.654724 
	C572.903381,670.984192 572.730225,690.315247 572.673889,709.645569 
	C572.654907,716.163391 573.072571,716.850647 579.667358,716.756592 
	C598.801941,716.483521 617.932861,715.968994 637.066345,715.607788 
	C642.677063,715.501831 648.291504,715.591492 653.400635,715.591492 
	C657.186646,674.222900 654.969299,633.236389 653.740417,592.476746 
	C664.113159,591.819702 673.501343,590.788513 682.897461,590.710388 
	C712.894165,590.460815 742.895020,590.702759 772.891907,590.461182 
	C784.029724,590.371460 795.301758,590.401917 806.266907,588.748352 
	C831.558777,584.934204 855.057129,576.518250 875.407654,560.114990 
	C886.926392,550.830444 897.626709,540.852112 906.074097,528.835754 
	C920.129517,508.842010 928.990173,486.648224 931.790466,462.186096 
	C934.180054,441.311279 934.318726,420.401978 929.621643,399.929443 
	C921.281555,363.578522 902.953003,333.365631 871.425598,312.378052 
	C855.744751,301.939362 838.848999,293.317261 820.170105,290.089996 
	C804.506348,287.383606 788.504028,286.156372 772.599182,285.440674 
	C750.342407,284.439178 728.056152,284.943085 706.047852,289.180542 
	C675.172058,295.125336 645.121521,303.963776 615.568298,314.667786 
	C586.937927,325.037567 559.529419,338.038452 532.440735,351.841278 
	C501.483032,367.615601 470.761414,383.802246 441.755432,402.994965 
	C413.359131,421.784241 384.895752,440.495056 356.998627,460.007843 
	C338.352081,473.050232 320.516022,487.269928 302.548431,501.259705 
	C279.870239,518.917114 257.441620,536.894836 234.861938,554.679321 
	C232.446899,556.581482 229.742722,558.116516 227.172653,559.821838 
	C226.883133,559.506897 226.593597,559.192017 226.304077,558.877136 
	C252.717819,498.847900 279.131561,438.818665 306.026520,377.695801 
	C317.384796,403.418365 328.134857,427.763550 339.012299,452.397156 
	C348.104492,445.816254 357.241699,438.990326 366.601105,432.484070 
	C377.506714,424.902863 388.625824,417.629425 399.614349,410.166595 
	C405.241302,406.345062 405.177094,405.970581 402.357941,399.675903 
	C394.828461,382.863983 387.419403,365.998138 379.955261,349.156921 
	C371.270874,329.562500 362.613220,309.956055 353.850403,290.396759 
	C352.629852,287.672363 351.736877,284.958221 347.329987,285.002380 
	C321.167450,285.264526 294.995911,285.371796 268.838867,284.898315 
	C262.435730,284.782440 259.393738,287.429260 257.118835,292.554352 
	C245.389786,318.978424 233.667313,345.405609 221.859909,371.794739 
	C209.644226,399.096466 197.332108,426.355042 185.065536,453.633972 
	C177.297089,470.909790 169.472641,488.160706 161.786316,505.472961 
	C153.155716,524.911926 144.730652,544.442261 136.074677,563.869812 
	C124.309532,590.275574 112.410210,616.621521 100.224365,643.664795 
M192.724396,708.950684 
	C193.081741,708.672791 193.439072,708.394897 193.796432,708.117065 
	C193.265915,708.213379 192.735413,708.309753 192.724396,708.950684 
z"/>
<path fill="#FEFEFE" opacity="1.000000" stroke="none" 
	d="
M100.396408,643.328979 
	C112.410210,616.621521 124.309532,590.275574 136.074677,563.869812 
	C144.730652,544.442261 153.155716,524.911926 161.786316,505.472961 
	C169.472641,488.160706 177.297089,470.909790 185.065536,453.633972 
	C197.332108,426.355042 209.644226,399.096466 221.859909,371.794739 
	C233.667313,345.405609 245.389786,318.978424 257.118835,292.554352 
	C259.393738,287.429260 262.435730,284.782440 268.838867,284.898315 
	C294.995911,285.371796 321.167450,285.264526 347.329987,285.002380 
	C351.736877,284.958221 352.629852,287.672363 353.850403,290.396759 
	C362.613220,309.956055 371.270874,329.562500 379.955261,349.156921 
	C387.419403,365.998138 394.828461,382.863983 402.357941,399.675903 
	C405.177094,405.970581 405.241302,406.345062 399.614349,410.166595 
	C388.625824,417.629425 377.506714,424.902863 366.601105,432.484070 
	C357.241699,438.990326 348.104492,445.816254 339.012299,452.397156 
	C328.134857,427.763550 317.384796,403.418365 306.026520,377.695801 
	C279.131561,438.818665 252.717819,498.847900 226.304077,558.877136 
	C226.593597,559.192017 226.883133,559.506897 227.172653,559.821838 
	C229.742722,558.116516 232.446899,556.581482 234.861938,554.679321 
	C257.441620,536.894836 279.870239,518.917114 302.548431,501.259705 
	C320.516022,487.269928 338.352081,473.050232 356.998627,460.007843 
	C384.895752,440.495056 413.359131,421.784241 441.755432,402.994965 
	C470.761414,383.802246 501.483032,367.615601 532.440735,351.841278 
	C559.529419,338.038452 586.937927,325.037567 615.568298,314.667786 
	C645.121521,303.963776 675.172058,295.125336 706.047852,289.180542 
	C728.056152,284.943085 750.342407,284.439178 772.599182,285.440674 
	C788.504028,286.156372 804.506348,287.383606 820.170105,290.089996 
	C838.848999,293.317261 855.744751,301.939362 871.425598,312.378052 
	C902.953003,333.365631 921.281555,363.578522 929.621643,399.929443 
	C934.318726,420.401978 934.180054,441.311279 931.790466,462.186096 
	C928.990173,486.648224 920.129517,508.842010 906.074097,528.835754 
	C897.626709,540.852112 886.926392,550.830444 875.407654,560.114990 
	C855.057129,576.518250 831.558777,584.934204 806.266907,588.748352 
	C795.301758,590.401917 784.029724,590.371460 772.891907,590.461182 
	C742.895020,590.702759 712.894165,590.460815 682.897461,590.710388 
	C673.501343,590.788513 664.113159,591.819702 653.740417,592.476746 
	C654.969299,633.236389 657.186646,674.222900 653.400635,715.591492 
	C648.291504,715.591492 642.677063,715.501831 637.066345,715.607788 
	C617.932861,715.968994 598.801941,716.483521 579.667358,716.756592 
	C573.072571,716.850647 572.654907,716.163391 572.673889,709.645569 
	C572.730225,690.315247 572.903381,670.984192 572.792175,651.654724 
	C572.505737,601.894592 572.085266,552.135254 571.734009,502.375427 
	C571.685913,495.560150 571.727417,488.744232 571.727417,480.718109 
	C561.723145,484.577423 552.251587,487.628510 543.302551,491.800385 
	C519.833313,502.741394 496.565460,514.116577 473.270966,525.429138 
	C461.584930,531.104309 461.623260,531.219727 466.751740,542.616516 
	C478.265686,568.203247 489.815399,593.773804 501.313324,619.367676 
	C512.887268,645.130798 524.467407,670.891357 535.925903,696.705811 
	C538.528564,702.569336 540.641174,708.650513 543.410889,715.735352 
	C537.422485,715.735352 532.347046,715.733032 527.271545,715.735718 
	C504.439270,715.747864 481.605927,715.652771 458.775757,715.878479 
	C454.851593,715.917297 453.015564,714.243042 451.661438,711.078613 
	C443.120148,691.117920 434.569519,671.161194 425.991852,651.216125 
	C418.389618,633.539185 410.794250,615.859009 403.104279,598.220154 
	C399.423492,589.777344 395.530731,581.427002 391.737091,573.041748 
	C322.678864,613.032593 261.230347,664.238037 195.086731,708.611389 
	C194.740891,708.318237 194.395065,708.025085 194.049225,707.731934 
	C195.454193,705.990662 196.627670,703.979126 198.298325,702.548035 
	C231.138443,674.415833 263.653564,645.885803 297.041260,618.416992 
	C324.776215,595.598877 353.376587,573.816406 381.911438,551.990723 
	C415.745178,526.111877 451.303741,502.699249 487.712494,480.643066 
	C523.230652,459.126434 559.623291,439.112427 597.727112,422.497650 
	C614.421021,415.218445 631.720825,409.329681 648.738037,402.790161 
	C650.270630,402.201233 651.748474,401.469788 654.262512,400.357300 
	C654.706055,407.395142 655.452026,413.877106 655.457458,420.359680 
	C655.471741,437.327057 655.041199,454.294556 655.020569,471.262329 
	C655.004150,484.730865 655.461060,498.200195 655.426453,511.668427 
	C655.416321,515.622925 656.886475,516.912415 660.645386,516.876831 
	C681.640320,516.677856 702.636414,516.558838 723.632324,516.497498 
	C738.593994,516.453796 753.566528,516.915649 768.515686,516.493591 
	C795.917969,515.719910 820.667175,508.362823 837.212646,484.526978 
	C850.870911,464.850433 855.812927,443.089783 849.345459,419.534058 
	C842.610413,395.003387 827.170959,379.013702 802.449768,371.913940 
	C781.425110,365.875854 759.882507,363.325409 738.371216,365.515808 
	C717.490295,367.641998 696.641846,371.588379 676.242920,376.616943 
	C640.041992,385.540894 605.596924,399.635162 572.305359,416.329956 
	C548.891907,428.071106 525.661560,440.229248 502.809052,453.022125 
	C481.665405,464.858368 460.856201,477.351807 440.418427,490.370178 
	C424.064484,500.787262 408.366608,512.256042 392.602386,523.571289 
	C376.671112,535.006348 360.766571,546.505981 345.301270,558.556091 
	C323.919678,575.215820 302.947113,592.401123 281.825958,609.394287 
	C272.629974,616.793030 263.364624,624.114624 254.379395,631.763367 
	C245.951248,638.937805 237.959518,646.623169 229.577026,653.853333 
	C220.652786,661.550720 211.424088,668.894226 202.456055,676.541931 
	C188.290176,688.622375 174.272339,700.876770 160.070374,712.914185 
	C158.421844,714.311523 156.007614,715.579224 153.940201,715.591980 
	C125.797707,715.766907 97.653755,715.709656 68.317894,715.709656 
	C78.294121,691.072388 89.187080,667.337830 100.396408,643.328979 
M350.485016,526.891785 
	C356.709717,519.773010 362.934418,512.654175 369.456573,505.195190 
	C368.947845,504.560303 367.969666,503.339539 366.391632,501.370178 
	C352.316223,515.020447 338.517548,528.279053 324.954254,541.774292 
	C323.785797,542.936951 324.175873,545.666077 323.841980,547.667480 
	C324.543335,547.963684 325.244690,548.259949 325.946045,548.556152 
	C333.971375,541.518005 341.996735,534.479858 350.485016,526.891785 
z"/>
<path fill="#FEFEFE" opacity="1.000000" stroke="none" 
	d="
M192.464661,708.678406 
	C192.735413,708.309753 193.265915,708.213379 193.796417,708.117065 
	C193.439072,708.394897 193.081741,708.672791 192.464661,708.678406 
z"/>
<path fill="#F5F6F8" opacity="1.000000" stroke="none" 
	d="
M350.253540,527.166748 
	C341.996735,534.479858 333.971375,541.518005 325.946045,548.556152 
	C325.244690,548.259949 324.543335,547.963684 323.841980,547.667480 
	C324.175873,545.666077 323.785797,542.936951 324.954254,541.774292 
	C338.517548,528.279053 352.316223,515.020447 366.391632,501.370178 
	C367.969666,503.339539 368.947845,504.560303 369.456573,505.195190 
	C362.934418,512.654175 356.709717,519.773010 350.253540,527.166748 
z"/>
</svg>